{"title":"In A Blink Of An Eye.2009.DvDRip.Ac3.Feel-Free","uid":5956942,"size":711764735,"categoryP":"video","categoryS":"movies","magnet":"?xt=urn:btih:401b8e35bad0af2d7be93ee7249665d36115fe33&amp;dn=In+A+Blink+Of+An+Eye.2009.DvDRip.Ac3.Feel-Free&amp;tr=udp%3A%2F%2Ftracker.openbittorrent.com%3A80&amp;tr=udp%3A%2F%2Fopen.demonii.com%3A1337&amp;tr=udp%3A%2F%2Ftracker.coppersurfer.tk%3A6969&amp;tr=udp%3A%2F%2Fexodus.desync.com%3A6969","seeders":0,"leechers":1,"uploader":"neon","files":9,"time":1289764553,"description":"Genre:Fantasy | Thriller\nLanguage:English\n &lt;a href=&quot; http://www.imdb.com/title/tt1415267/&quot; rel=&quot;nofollow&quot; target=&quot;_NEW&quot;&gt; http://www.imdb.com/title/tt1415267/&lt;/a&gt;\nSource:In_A_Blink_Of_An_Eye.\n\nGeneral\nComplete name :In.A.Blink.Of.An.Eye.2009.DvDRip.Ac3.Feel-Free\nFormat : AVI\nFormat/Info : Audio Video Interleave\nFile size : 676 MiB\nDuration : 1h 25mn\nOverall bit rate : 1 105 Kbps\nVideo #0\nCodec ID : XVID\nCodec ID/Hint : XviD\nDuration : 1h 25mn\nBit rate : 872 Kbps\nWidth : 720 pixels\nHeight : 384 pixels\nDisplay aspect ratio : 1.875\nFrame rate : 23.976 fps\nResolution : 24 bits\nColorimetry : 4:2:0\nScan type : Progressive\nBits/(Pixel*Frame) : 0.131\nStream size : 534 MiB (79%)\nWriting library : XviD 1.2.1 (UTC 2008-12-04)\nAudio #1\nID : 1\nFormat : AC-3\nFormat/Info : Audio Coding 3\nCodec ID : 2000\nDuration : 1h 25mn\nBit rate mode : Constant\nBit rate : 224 Kbps\nChannel(s) : 2 channels\nChannel positions : L R\nSampling rate : 48.0 KHz\nStream size : 137 MiB (20%)\nAlignment : Split accross interleaves\nInterleave, duration : 42 ms (1.00 video frame)\nInterleave, preload duration : 500 ms\n\nPlot:\nOne man's Revelation reveals he's been Left Behind. It was meant to be the perfect getaway, suddenly it became a horrific vacation for Detective David Ramsey (David A.R. White). While aboard a private yacht on the shimmering Sea of Cortez, David's wife and friends suddenly disappear. During the investigation, as David's police Captain (Eric Roberts) is helping him unravel the mystery, David is shocked to wake up from the terrible nightmare,or was it? Caught in the recurring turmoil of knowing tragedy is inevitable, David realizes he is powerless to stop it. As each day repeats, David discovers evidence of a worldwide event known in Biblical\n\nTRAILER: http://www.imdb.com/video/screenplay/vi2400061209/\n\n","torrent":{"xt":"urn:btih:401b8e35bad0af2d7be93ee7249665d36115fe33","amp;dn":"In+A+Blink+Of+An+Eye.2009.DvDRip.Ac3.Feel-Free","amp;tr":["udp%3A%2F%2Ftracker.openbittorrent.com%3A80","udp%3A%2F%2Fopen.demonii.com%3A1337","udp%3A%2F%2Ftracker.coppersurfer.tk%3A6969","udp%3A%2F%2Fexodus.desync.com%3A6969"],"infoHash":"401b8e35bad0af2d7be93ee7249665d36115fe33","infoHashBuffer":{"type":"Buffer","data":[64,27,142,53,186,208,175,45,123,233,62,231,36,150,101,211,97,21,254,51]},"announce":[],"urlList":[]}}